<?xml version="1.0" encoding="UTF-8" standalone="no"?><!DOCTYPE svg PUBLIC "-//W3C//DTD SVG 1.1//EN" "http://www.w3.org/Graphics/SVG/1.1/DTD/svg11.dtd"><svg width="100%" height="100%" viewBox="0 0 346 134" version="1.1" xmlns="http://www.w3.org/2000/svg" xmlns:xlink="http://www.w3.org/1999/xlink" xml:space="preserve" xmlns:serif="http://www.serif.com/" style="fill-rule:evenodd;clip-rule:evenodd;stroke-linejoin:round;stroke-miterlimit:2;"><g id="plume_logo"><g><path d="M2.835,53.501c-0.215,-0.625 -0.417,-1.254 -0.606,-1.887c-2.253,-7.53 -0.865,-15.552 -0.865,-15.553l0.29,-0.79l0.531,-0.621l0.711,-0.402l0.831,-0.134l0.825,0.167l0.695,0.431l0.102,0.131c-0.001,-2.852 0.526,-5.29 1.528,-7.737c2.013,-4.912 2.939,-7.13 3.693,-9.464l0.381,-0.721l0.586,-0.535l0.73,-0.309l0.815,-0.047l0.781,0.235l0.638,0.471l0.445,0.656l0.203,0.791c0.015,0.188 0.024,0.415 0.027,0.677c0.356,-0.928 0.753,-1.887 1.213,-2.935c1.266,-2.882 1.87,-5.597 2.174,-7.721l0.235,-0.738l0.448,-0.608l0.617,-0.434l0.743,-0.219l0.774,0.035l0.703,0.274l0.58,0.483l0.405,0.66c0.163,0.403 0.458,1.982 0.556,3.993c0.121,-0.612 0.212,-1.172 0.266,-1.658c0.455,-4.081 1.628,-8.273 1.635,-8.298l0.28,-0.627l0.438,-0.51l0.565,-0.365l0.66,-0.192l0.64,0l0.659,0.192l0.565,0.365l0.439,0.51l0.28,0.627c0.007,0.025 1.179,4.217 1.634,8.298c0.055,0.486 0.145,1.046 0.266,1.658c0.099,-2.011 0.394,-3.59 0.556,-3.993l0.405,-0.66l0.58,-0.483l0.704,-0.274l0.773,-0.035l0.744,0.219l0.617,0.434l0.448,0.608l0.234,0.738c0.305,2.124 0.908,4.839 2.174,7.721c0.461,1.048 0.857,2.007 1.214,2.935c0.003,-0.262 0.012,-0.489 0.027,-0.677l0.203,-0.791l0.445,-0.656l0.638,-0.471l0.781,-0.235l0.815,0.047l0.73,0.309l0.585,0.535l0.382,0.721c0.753,2.334 1.68,4.552 3.692,9.464c1.003,2.447 1.529,4.885 1.528,7.737l0.103,-0.131l0.694,-0.431l0.825,-0.167l0.832,0.134l0.711,0.402l0.53,0.621c0,-0 0.291,0.79 0.291,0.79c-0,0 1.387,8.023 -0.866,15.553c-0.486,1.625 -1.067,3.275 -1.767,4.914l0.174,-0.102l0.756,-0.15l0.784,0.112l0.701,0.371l0.522,0.566l0.307,0.707l0.057,0.791c-0.121,1.191 -1.068,4.627 -2.888,8.173c-0.62,1.928 -1.833,4.788 -4.137,7.7l0.251,0.047l0.675,0.386l0.502,0.568l0.296,0.698l0.055,0.776c-0.129,1.36 -1.593,5.281 -3.462,8.058c-1.227,2.586 -3.583,6.135 -7.814,8.481c-1.927,1.068 -3.508,2.101 -4.851,3.175c1.364,-0.514 2.618,-0.96 3.776,-1.674c2.363,-1.458 4.105,-3.547 4.107,-3.549l0.545,-0.48l0.65,-0.285l0.705,-0.079l0.712,0.14l0.635,0.352l0.488,0.515l0.313,0.637l0.108,0.718c-0.004,0.574 -0.218,1.471 -0.726,2.496c-0.801,1.617 -2.363,3.801 -3.937,5.314c-1.383,1.33 -2.796,2.109 -4.333,2.854c-1.221,0.593 -2.535,1.164 -3.986,2.175c-1.328,0.924 -2.785,2.605 -3.809,4.129c-0.227,0.339 -0.433,0.669 -0.611,0.987c-0.015,0.029 -0.021,0.062 -0.018,0.094c0.53,5.984 2.367,10.77 4.813,14.88c1.408,2.365 2.002,3.609 2.017,3.642l0.211,0.72l-0.023,0.731l-0.247,0.689l-0.46,0.592l-0.623,0.417l-0.705,0.197l-0.731,-0.029c-0,0 -0.695,-0.258 -0.699,-0.259c-0,-0 -2.13,-1.172 -4.041,-3.831c-2.993,-4.163 -5.481,-10.719 -6.375,-17l-0,-0.003c-0.012,-0.082 -0.037,-0.162 -0.075,-0.235c-0.737,-1.423 -1.826,-3.238 -3.428,-4.637c-1.358,-1.186 -2.679,-1.903 -3.912,-2.593c-1.552,-0.868 -2.987,-1.71 -4.289,-3.012c-2.757,-2.758 -3.668,-6.903 -3.676,-8.318l0.119,-0.752l0.341,-0.658l0.529,-0.52l0.683,-0.334l0.754,-0.099l0.728,0.141l0.648,0.36c0,0 0.514,0.561 0.515,0.561c-0,0 1.645,2.527 3.874,4.142c1.412,1.023 2.591,1.658 3.716,2.249c-1.673,-2.183 -3.695,-4.144 -6.175,-6.358c-3.763,-3.36 -5.229,-7.147 -5.806,-9.577c-1.632,-3.124 -2.558,-8.193 -2.407,-9.732l0.202,-0.751l0.423,-0.629l0.601,-0.462l0.591,-0.2c-0.653,-1.177 -1.133,-2.267 -1.484,-3.207l-0.001,-0.002c-2.614,-4.568 -3.611,-9.884 -3.734,-11.395l0.08,-0.825l0.347,-0.726l0.572,-0.567l0.753,-0.347l0.827,-0.063l0.256,0.072Z" style="fill:#fff;"/><g><path d="M7.423,79.603c-0,-0 0.03,5.911 5.524,10.817c5.217,4.658 8.475,8.283 10.782,14.778l0.507,-7.32l-5.945,-7.944l-7.11,-5.943l-3.758,-4.388Z" style="fill:#03dfc1;"/><path d="M45.434,81.455c-0,0 -1.499,6.877 -8.045,10.506c-6.549,3.63 -9.355,6.902 -12.167,12.372l0.009,-7.849l7.547,-6.442l8.243,-4.234l4.413,-4.353Z" style="fill:#03dfc1;"/><path d="M4.759,63.519c0,0 0.885,7.823 9.426,14.161c5.57,4.133 8.916,10.38 10.087,15.663l0.672,-8.358l-5.944,-7.944l-7.11,-5.944l-7.131,-7.578Z" style="fill:#03dfc1;"/><path d="M50.639,64.177c0,0 -1.2,8.806 -10.277,14.598c-7.508,4.792 -12.264,10.467 -14.018,14.704l0.649,-9.338l7.405,-6.605l8.149,-4.413l8.092,-8.946Z" style="fill:#03dfc1;"/><path d="M24.285,89.072c0.057,-0.437 0.007,-0.882 -0.144,-1.296c-1.162,-3.144 -2.972,-6.533 -5.772,-8.999c-3.647,-3.213 -6.411,-5.059 -10.15,-8.756c-4.502,-4.452 -6.076,-12.384 -6.226,-14.226c-0.013,-0.169 0.097,-0.324 0.261,-0.367c0.165,-0.042 0.336,0.039 0.407,0.194c-0,0 3.391,7.464 7.47,11.311c4.386,4.135 7.532,5.75 10.717,8.89c2.169,2.139 3.334,3.428 4.205,5.053c0.03,0.056 0.092,0.086 0.154,0.074c0.062,-0.012 0.109,-0.063 0.116,-0.126c0.077,-0.714 0.146,-1.42 0.205,-2.12c0.042,-0.505 -0.056,-1.011 -0.285,-1.463c-1.739,-3.316 -5.402,-6.511 -9.608,-9.325c-6.223,-4.165 -9.54,-10.359 -11.49,-16.875c-2.12,-7.087 -0.81,-14.638 -0.81,-14.638c0.029,-0.17 0.179,-0.293 0.352,-0.29c0.172,0.004 0.317,0.133 0.339,0.304c0,0 0.838,6.35 3.09,12.589c2.695,7.469 7.112,11.893 9.191,13.665c-1.722,-3.661 -6.421,-13.932 -7.885,-20.072c-1.546,-6.482 -1.39,-10.595 0.306,-14.734c2.043,-4.987 2.98,-7.239 3.745,-9.609c0.051,-0.159 0.208,-0.259 0.374,-0.24c0.166,0.02 0.295,0.154 0.308,0.321c0.111,1.435 -0.128,5.292 -1.396,9.382c-0.59,1.902 -0.564,4.864 -0.244,7.284c0.182,1.374 0.455,2.572 0.774,3.288c0.069,-0.067 0.139,-0.139 0.167,-0.184c0.95,-1.521 1.339,-3.675 1.628,-5.906c0.298,-2.302 0.485,-4.687 1.011,-6.586c0.906,-3.273 1.7,-5.641 3.125,-8.886c1.352,-3.076 1.998,-5.974 2.323,-8.241c0.022,-0.157 0.147,-0.279 0.304,-0.298c0.157,-0.019 0.308,0.07 0.367,0.217c0.259,0.64 0.818,4.674 0.126,8.21c-0.648,3.31 -1.668,7.925 -1.462,9.659c0.014,0.121 0.034,0.225 0.064,0.309c0.008,0.024 0.024,0.054 0.035,0.075c0.028,-0.011 0.073,-0.031 0.107,-0.052c0.081,-0.053 0.171,-0.128 0.27,-0.226c0.527,-0.516 1.172,-1.768 1.846,-3.375c1.618,-3.854 3.336,-9.727 3.678,-12.793c0.439,-3.936 1.573,-7.98 1.573,-7.98c0.037,-0.134 0.151,-0.234 0.289,-0.253c0.032,-0.004 0.064,-0.004 0.096,0c0.138,0.019 0.251,0.119 0.289,0.253c-0,-0 1.134,4.044 1.573,7.98c0.342,3.066 2.06,8.939 3.677,12.793c0.675,1.607 1.32,2.859 1.846,3.375c0.1,0.098 0.19,0.173 0.271,0.226c0.033,0.021 0.078,0.041 0.106,0.052c0.012,-0.021 0.027,-0.051 0.036,-0.075c0.03,-0.084 0.05,-0.188 0.064,-0.309c0.206,-1.734 -0.814,-6.349 -1.462,-9.659c-0.693,-3.536 -0.133,-7.57 0.126,-8.21c0.059,-0.147 0.209,-0.236 0.366,-0.217c0.157,0.019 0.282,0.141 0.305,0.298c0.325,2.267 0.971,5.165 2.322,8.241c1.426,3.245 2.22,5.613 3.126,8.886c0.526,1.899 0.713,4.284 1.011,6.586c0.289,2.231 0.678,4.385 1.627,5.906c0.029,0.045 0.098,0.117 0.167,0.184c0.32,-0.716 0.593,-1.914 0.774,-3.288c0.321,-2.42 0.346,-5.382 -0.243,-7.284c-1.269,-4.09 -1.508,-7.947 -1.396,-9.382c0.012,-0.167 0.141,-0.301 0.307,-0.321c0.167,-0.019 0.323,0.081 0.375,0.24c0.764,2.37 1.702,4.622 3.745,9.609c1.695,4.139 1.852,8.252 0.306,14.734c-1.465,6.14 -6.163,16.411 -7.886,20.073c2.079,-1.773 6.496,-6.197 9.192,-13.666c2.252,-6.239 3.089,-12.589 3.089,-12.589c0.023,-0.171 0.167,-0.3 0.34,-0.304c0.173,-0.003 0.323,0.12 0.352,0.29c0,0 1.31,7.551 -0.811,14.638c-1.948,6.511 -5.48,13.498 -12.401,18.106c-4.174,2.779 -7.55,5.878 -9.141,8.653c-0.174,0.313 -0.285,0.656 -0.327,1.011c-0.081,0.644 -0.167,1.29 -0.261,1.941c-0.01,0.065 0.027,0.129 0.088,0.153c0.061,0.025 0.132,0.005 0.171,-0.048c0.942,-1.277 2.129,-2.547 4.214,-4.251c3.328,-2.72 5.54,-3.706 9.925,-7.316c4.369,-3.595 8.606,-10.859 8.606,-10.859c0.075,-0.128 0.229,-0.187 0.37,-0.141c0.141,0.046 0.231,0.184 0.216,0.331c-0.186,1.837 -2.62,9.469 -7.174,13.676c-3.862,3.566 -6.907,5.105 -10.446,8.141c-2.755,2.364 -5.456,5.038 -7.083,7.818c-0.156,0.273 -0.264,0.571 -0.318,0.881c-0.23,1.279 -0.455,2.595 -0.666,3.957c-0.01,0.064 0.025,0.127 0.085,0.153c0.06,0.026 0.129,0.009 0.17,-0.042c1.148,-1.423 2.79,-3.065 4.937,-4.275c3.982,-2.244 6.194,-3.796 9.106,-6.163c3.015,-2.453 5.507,-6.019 5.507,-6.019c0.091,-0.13 0.258,-0.183 0.407,-0.128c0.15,0.055 0.243,0.204 0.228,0.362c-0.142,1.492 -2.175,6.418 -4.345,8.666c-2.627,2.722 -6.343,5.013 -10.729,7.387c-1.768,0.958 -3.699,2.918 -5.072,4.785c-0.318,0.432 -0.606,0.859 -0.855,1.268c-0.169,0.281 -0.272,0.597 -0.303,0.924c-0.12,1.316 -0.216,2.676 -0.281,4.087c-0.002,0.063 0.036,0.12 0.095,0.142c0.059,0.021 0.125,0.002 0.163,-0.048c0.994,-1.272 2.457,-2.776 4.37,-3.857c2.95,-1.667 5.466,-2.077 7.647,-3.423c2.645,-1.632 4.594,-3.971 4.594,-3.971c0.094,-0.114 0.25,-0.156 0.389,-0.105c0.139,0.051 0.231,0.183 0.23,0.331c-0.002,0.376 -0.186,0.95 -0.518,1.62c-0.718,1.449 -2.121,3.405 -3.531,4.761c-1.216,1.169 -2.468,1.84 -3.82,2.496c-1.305,0.633 -2.704,1.253 -4.256,2.333c-1.502,1.045 -3.168,2.931 -4.326,4.655c-0.262,0.39 -0.499,0.771 -0.7,1.131c-0.208,0.378 -0.299,0.81 -0.261,1.239c0.56,6.326 2.501,11.384 5.087,15.728c1.363,2.292 1.93,3.481 1.93,3.481c0.066,0.138 0.035,0.303 -0.077,0.407c-0.112,0.104 -0.278,0.124 -0.411,0.048c-0,0 -1.785,-1.008 -3.401,-3.256c-2.835,-3.944 -5.172,-10.164 -6.018,-16.112c-0.043,-0.306 -0.137,-0.602 -0.278,-0.876c-0.832,-1.607 -2.08,-3.646 -3.891,-5.227c-1.478,-1.29 -2.909,-2.08 -4.251,-2.831c-1.389,-0.777 -2.685,-1.515 -3.85,-2.681c-2.297,-2.297 -3.084,-5.737 -3.091,-6.916c-0.001,-0.155 0.1,-0.293 0.249,-0.337c0.149,-0.045 0.309,0.013 0.394,0.143c-0,0 1.861,2.845 4.374,4.667c2.851,2.065 4.754,2.552 7.176,4.279c1.092,0.779 1.945,1.651 2.609,2.483c0.037,0.047 0.101,0.066 0.158,0.047c0.058,-0.019 0.097,-0.072 0.099,-0.132c0.037,-1.372 0.101,-2.707 0.184,-4.007c0.027,-0.418 -0.042,-0.836 -0.202,-1.223c-0.985,-2.154 -3.803,-5.982 -6.375,-8.001c-3.926,-3.084 -6.484,-5.777 -8.546,-8.953c-1.701,-2.621 -2.756,-7.845 -2.611,-9.337c0.016,-0.158 0.136,-0.286 0.293,-0.311c0.157,-0.025 0.311,0.058 0.375,0.203c0,0 1.765,3.976 4.258,6.959c2.401,2.873 3.81,4.448 7.45,7.194c2.358,1.779 4.583,4.462 5.756,6.288c0.032,0.052 0.094,0.078 0.153,0.064c0.06,-0.013 0.105,-0.063 0.112,-0.123c0.158,-1.369 0.326,-2.7 0.496,-3.999Z" style="fill:#0035a7;"/><path d="M17.821,65.536c-5.6,-3.292 -9.599,-9.504 -9.599,-18.043c-0,-14.392 14.129,-27.969 19.566,-28.009c5.436,0.04 19.566,13.617 19.566,28.009c-0,8.539 -4,14.751 -9.599,18.043c-3.211,1.953 -7.536,4.204 -9.967,7.507c-2.432,-3.303 -6.756,-5.554 -9.967,-7.507Z" style="fill:#03dfc1;"/><path d="M27.788,65.386c-8.944,-0.006 -17.228,-6.598 -17.228,-17.925c-0,-12.464 12.89,-24.171 17.154,-24.171c0.024,-0 0.049,-0 0.074,0c0.024,-0 0.049,-0 0.074,-0c4.263,-0 17.154,11.707 17.154,24.171c-0,11.327 -8.285,17.919 -17.228,17.925Z" style="fill:#fff;"/><path d="M27.788,62.43c-7.679,0 -14.795,-5.61 -14.795,-15.253c0,-10.606 10.702,-20.494 14.795,-20.494c4.092,-0 14.794,9.888 14.794,20.494c0,9.643 -7.115,15.253 -14.794,15.253Z" style="fill:url(#_Linear1);"/><path d="M27.788,58.748c-6.007,0 -10.884,-4.507 -10.884,-10.058c0,-5.551 4.877,-10.058 10.884,-10.058c6.007,0 10.883,4.507 10.883,10.058c0,5.551 -4.876,10.058 -10.883,10.058Z" style="fill:#03dfc1;"/><path d="M27.788,49.587c-1.509,3.261 -3.039,3.845 -4.404,3.845c-2.31,0 -3.874,-2.996 -3.874,-5.831c-0,-4.407 3.709,-7.985 8.278,-7.985c4.569,-0 8.278,3.578 8.278,7.985c-0,2.835 -1.564,5.831 -3.875,5.831c-1.364,0 -2.894,-0.584 -4.403,-3.845Z" style="fill:#0033a4;"/></g><g><path d="M91.552,99.827l0,-67.052l25.293,0c4.452,0 7.852,0.214 10.2,0.641c3.293,0.548 6.053,1.593 8.279,3.133c2.226,1.539 4.017,3.697 5.374,6.472c1.357,2.774 2.035,5.824 2.035,9.147c0,5.702 -1.814,10.527 -5.443,14.476c-3.628,3.949 -10.184,5.923 -19.667,5.923l-17.197,0l-0,27.26l-8.874,0Zm8.874,-35.172l17.334,-0c5.733,-0 9.803,-1.068 12.212,-3.202c2.409,-2.135 3.614,-5.138 3.614,-9.01c-0,-2.806 -0.709,-5.207 -2.127,-7.204c-1.418,-1.997 -3.286,-3.316 -5.603,-3.956c-1.494,-0.397 -4.254,-0.595 -8.279,-0.595l-17.151,-0l-0,23.967Z" style="fill:#fff;fill-rule:nonzero;"/><rect x="152.795" y="32.775" width="8.233" height="67.052" style="fill:#fff;fill-rule:nonzero;"/><path d="M205.623,99.827l-0,-7.135c-3.781,5.488 -8.919,8.233 -15.414,8.233c-2.866,-0 -5.542,-0.549 -8.027,-1.647c-2.485,-1.098 -4.33,-2.477 -5.534,-4.139c-1.205,-1.662 -2.051,-3.697 -2.539,-6.106c-0.335,-1.616 -0.503,-4.178 -0.503,-7.684l0,-30.096l8.233,0l0,26.94c0,4.299 0.168,7.196 0.503,8.69c0.519,2.165 1.616,3.865 3.293,5.1c1.677,1.235 3.751,1.852 6.221,1.852c2.469,0 4.787,-0.632 6.952,-1.898c2.165,-1.265 3.697,-2.988 4.596,-5.168c0.9,-2.18 1.35,-5.344 1.35,-9.491l-0,-26.025l8.233,0l-0,48.574l-7.364,0Z" style="fill:#fff;fill-rule:nonzero;"/><path d="M225.885,99.827l-0,-48.574l7.363,0l0,6.815c1.525,-2.378 3.553,-4.291 6.084,-5.74c2.53,-1.448 5.412,-2.172 8.644,-2.172c3.598,-0 6.548,0.747 8.85,2.241c2.302,1.494 3.926,3.583 4.871,6.266c3.842,-5.672 8.843,-8.507 15.002,-8.507c4.818,-0 8.523,1.334 11.115,4.002c2.592,2.668 3.887,6.777 3.887,12.326l0,33.343l-8.187,0l0,-30.599c0,-3.293 -0.266,-5.664 -0.8,-7.112c-0.534,-1.448 -1.502,-2.615 -2.904,-3.499c-1.403,-0.884 -3.05,-1.326 -4.94,-1.326c-3.415,-0 -6.251,1.136 -8.507,3.407c-2.257,2.272 -3.385,5.908 -3.385,10.909l0,28.22l-8.233,0l0,-31.559c0,-3.659 -0.671,-6.403 -2.012,-8.233c-1.342,-1.829 -3.537,-2.744 -6.586,-2.744c-2.318,-0 -4.46,0.61 -6.427,1.829c-1.966,1.22 -3.392,3.004 -4.276,5.352c-0.884,2.348 -1.327,5.732 -1.327,10.153l0,25.202l-8.232,0Z" style="fill:#fff;fill-rule:nonzero;"/><path d="M337.165,84.185l8.507,1.052c-1.341,4.97 -3.827,8.827 -7.455,11.571c-3.629,2.745 -8.263,4.117 -13.904,4.117c-7.105,-0 -12.738,-2.188 -16.901,-6.564c-4.162,-4.375 -6.243,-10.512 -6.243,-18.409c0,-8.172 2.104,-14.514 6.312,-19.027c4.208,-4.513 9.666,-6.769 16.374,-6.769c6.495,-0 11.801,2.21 15.917,6.632c4.116,4.421 6.175,10.641 6.175,18.661c-0,0.488 -0.016,1.219 -0.046,2.195l-36.225,0c0.305,5.336 1.815,9.422 4.529,12.258c2.713,2.836 6.098,4.254 10.153,4.254c3.019,-0 5.596,-0.793 7.73,-2.379c2.134,-1.585 3.827,-4.116 5.077,-7.592Zm-27.031,-13.31l27.122,-0c-0.365,-4.086 -1.402,-7.15 -3.11,-9.193c-2.622,-3.172 -6.022,-4.757 -10.199,-4.757c-3.781,-0 -6.96,1.265 -9.537,3.796c-2.576,2.531 -4.002,5.916 -4.276,10.154Z" style="fill:#fff;fill-rule:nonzero;"/></g></g></g><defs><linearGradient id="_Linear1" x1="0" y1="0" x2="1" y2="0" gradientUnits="userSpaceOnUse" gradientTransform="matrix(2.18889e-15,-35.7472,35.7472,2.18889e-15,27.7878,62.43)"><stop offset="0" style="stop-color:#c2b500;stop-opacity:1"/><stop offset="1" style="stop-color:#fe0;stop-opacity:1"/></linearGradient></defs></svg>